<svg width="35" height="35" viewBox="0 0 35 35" fill="none" xmlns="http://www.w3.org/2000/svg">
<g clip-path="url(#clip0_105_734)">
<path d="M17.4999 22.1666C20.0772 22.1666 22.1666 20.0772 22.1666 17.4999C22.1666 14.9226 20.0772 12.8333 17.4999 12.8333C14.9226 12.8333 12.8333 14.9226 12.8333 17.4999C12.8333 20.0772 14.9226 22.1666 17.4999 22.1666Z" fill="#007AFF"/>
<path d="M13.1251 2.91675L10.4563 5.83341H5.83341C4.22925 5.83341 2.91675 7.14592 2.91675 8.75008V26.2501C2.91675 27.8542 4.22925 29.1667 5.83341 29.1667H29.1667C30.7709 29.1667 32.0834 27.8542 32.0834 26.2501V8.75008C32.0834 7.14592 30.7709 5.83341 29.1667 5.83341H24.5438L21.8751 2.91675H13.1251ZM17.5001 24.7917C13.4751 24.7917 10.2084 21.5251 10.2084 17.5001C10.2084 13.4751 13.4751 10.2084 17.5001 10.2084C21.5251 10.2084 24.7917 13.4751 24.7917 17.5001C24.7917 21.5251 21.5251 24.7917 17.5001 24.7917Z" fill="#007AFF"/>
</g>
<defs>
<clipPath id="clip0_105_734">
<rect width="35" height="35" fill="white"/>
</clipPath>
</defs>
</svg>
