<svg width="35" height="35" viewBox="0 0 35 35" fill="none" xmlns="http://www.w3.org/2000/svg">
<path d="M5.83331 16.1875V9.29687C5.83331 8.68923 6.00953 8.14235 6.36196 7.65624C6.71439 7.17013 7.17012 6.8177 7.72915 6.59895L16.4791 3.3177C16.8194 3.19617 17.1597 3.13541 17.5 3.13541C17.8403 3.13541 18.1805 3.19617 18.5208 3.3177L27.2708 6.59895C27.8298 6.8177 28.2856 7.17013 28.638 7.65624C28.9904 8.14235 29.1666 8.68923 29.1666 9.29687V16.1875C29.1666 19.5903 28.1944 22.7682 26.25 25.7213C24.3055 28.6745 21.6927 30.6979 18.4114 31.7917C18.2656 31.8403 18.1198 31.8767 17.9739 31.901C17.8281 31.9253 17.6701 31.9375 17.5 31.9375C17.3298 31.9375 17.1719 31.9253 17.026 31.901C16.8802 31.8767 16.7344 31.8403 16.5885 31.7917C13.3073 30.6979 10.6944 28.6745 8.74998 25.7213C6.80554 22.7682 5.83331 19.5903 5.83331 16.1875ZM14.5833 23.3333H20.4166C20.8298 23.3333 21.1762 23.1936 21.4557 22.9141C21.7352 22.6345 21.875 22.2882 21.875 21.875V17.5C21.875 17.0868 21.7352 16.7404 21.4557 16.4609C21.1762 16.1814 20.8298 16.0417 20.4166 16.0417V14.5833C20.4166 13.7812 20.1311 13.0946 19.5599 12.5234C18.9887 11.9522 18.3021 11.6667 17.5 11.6667C16.6979 11.6667 16.0113 11.9522 15.4401 12.5234C14.8689 13.0946 14.5833 13.7812 14.5833 14.5833V16.0417C14.1701 16.0417 13.8238 16.1814 13.5443 16.4609C13.2647 16.7404 13.125 17.0868 13.125 17.5V21.875C13.125 22.2882 13.2647 22.6345 13.5443 22.9141C13.8238 23.1936 14.1701 23.3333 14.5833 23.3333ZM16.0416 16.0417V14.5833C16.0416 14.1701 16.1814 13.8238 16.4609 13.5443C16.7404 13.2647 17.0868 13.125 17.5 13.125C17.9132 13.125 18.2595 13.2647 18.539 13.5443C18.8186 13.8238 18.9583 14.1701 18.9583 14.5833V16.0417H16.0416Z" fill="#007AFF"/>
</svg>
