<svg width="64" height="64" viewBox="0 0 64 64" fill="none" xmlns="http://www.w3.org/2000/svg">
<g clip-path="url(#clip0_283_132)">
<path d="M50.48 29.3333C49.1734 20.2933 41.4134 13.3333 32 13.3333C22.5867 13.3333 14.8267 20.2933 13.52 29.3333H5.33337V34.6667H13.52C14.8267 43.7067 22.5867 50.6667 32 50.6667C41.4134 50.6667 49.1734 43.7067 50.48 34.6667H58.6667V29.3333H50.48ZM40 38.6667C40 40.1333 38.8 41.3333 37.3334 41.3333H26.6667C25.2 41.3333 24 40.1333 24 38.6667V30.6667C24 29.2 25.2 28 26.6667 28V25.3333C26.6667 22.1067 29.5467 19.52 32.9067 20.08C35.52 20.5067 37.3334 22.96 37.3334 25.6267V28C38.8 28 40 29.2 40 30.6667V38.6667ZM34 34.6667C34 35.76 33.0934 36.6667 32 36.6667C30.9067 36.6667 30 35.76 30 34.6667C30 33.5733 30.9067 32.6667 32 32.6667C33.0934 32.6667 34 33.5733 34 34.6667ZM34.6667 25.3333V28H29.3334V25.3333C29.3334 23.8667 30.5334 22.6667 32 22.6667C33.4667 22.6667 34.6667 23.8667 34.6667 25.3333Z" fill="#007AFF"/>
</g>
<defs>
<clipPath id="clip0_283_132">
<rect width="64" height="64" fill="white"/>
</clipPath>
</defs>
</svg>
