<svg width="35" height="35" viewBox="0 0 35 35" fill="none" xmlns="http://www.w3.org/2000/svg">
<path d="M8.75004 32.0834C7.94796 32.0834 7.26157 31.798 6.69087 31.2273C6.11921 30.6556 5.83337 29.9688 5.83337 29.1667V5.83335C5.83337 5.03127 6.11921 4.3444 6.69087 3.77273C7.26157 3.20203 7.94796 2.91669 8.75004 2.91669H19.2136C19.6025 2.91669 19.9734 2.9896 20.3263 3.13544C20.6782 3.28127 20.9879 3.48787 21.2552 3.75523L28.3282 10.8281C28.5955 11.0955 28.8021 11.4052 28.948 11.7571C29.0938 12.11 29.1667 12.4809 29.1667 12.8698V16.1875L17.5 27.8177V32.0834H8.75004ZM21.1459 32.0834C20.9514 32.0834 20.7813 32.0104 20.6355 31.8646C20.4896 31.7188 20.4167 31.5486 20.4167 31.3542V29.6042C20.4167 29.4097 20.4595 29.2153 20.545 29.0209C20.6296 28.8264 20.7327 28.6684 20.8542 28.5469L27.9271 21.4375L31.0625 24.5L23.9532 31.6459C23.8316 31.7917 23.6737 31.9011 23.4792 31.974C23.2848 32.0469 23.0903 32.0834 22.8959 32.0834H21.1459ZM32.1198 23.4792L29.0209 20.3802L30.0417 19.3594C30.3334 19.0677 30.6858 18.9219 31.099 18.9219C31.5122 18.9219 31.8525 19.0677 32.1198 19.3594L33.1407 20.4167C33.408 20.7084 33.5417 21.0545 33.5417 21.455C33.5417 21.8565 33.408 22.191 33.1407 22.4584L32.1198 23.4792ZM20.4167 13.125H26.25L18.9584 5.83335V11.6667C18.9584 12.0799 19.0984 12.426 19.3784 12.705C19.6574 12.985 20.0035 13.125 20.4167 13.125Z" fill="#007AFF"/>
</svg>
