<svg width="64" height="64" viewBox="0 0 64 64" fill="none" xmlns="http://www.w3.org/2000/svg">
<path d="M45.9999 35.9999C46.5777 35.9999 47.0559 35.8106 47.4346 35.4319C47.8115 35.055 47.9999 34.5777 47.9999 33.9999C47.9999 33.4221 47.8115 32.9439 47.4346 32.5653C47.0559 32.1884 46.5777 31.9999 45.9999 31.9999H39.3332C38.7555 31.9999 38.2781 32.1884 37.9012 32.5653C37.5226 32.9439 37.3333 33.4221 37.3333 33.9999C37.3333 34.5777 37.5226 35.055 37.9012 35.4319C38.2781 35.8106 38.7555 35.9999 39.3332 35.9999H45.9999ZM45.9999 43.9999C46.5777 43.9999 47.0559 43.8115 47.4346 43.4346C47.8115 43.0559 47.9999 42.5777 47.9999 41.9999C47.9999 41.4221 47.8115 40.9439 47.4346 40.5653C47.0559 40.1884 46.5777 39.9999 45.9999 39.9999H39.3332C38.7555 39.9999 38.2781 40.1884 37.9012 40.5653C37.5226 40.9439 37.3333 41.4221 37.3333 41.9999C37.3333 42.5777 37.5226 43.0559 37.9012 43.4346C38.2781 43.8115 38.7555 43.9999 39.3332 43.9999H45.9999ZM39.9999 18.6666H53.3332C54.7999 18.6666 56.0559 19.1884 57.1012 20.2319C58.1448 21.2773 58.6666 22.5333 58.6666 23.9999V53.3332C58.6666 54.7999 58.1448 56.0559 57.1012 57.1012C56.0559 58.1448 54.7999 58.6666 53.3332 58.6666H10.6666C9.19992 58.6666 7.94481 58.1448 6.90125 57.1012C5.85592 56.0559 5.33325 54.7999 5.33325 53.3332V23.9999C5.33325 22.5333 5.85592 21.2773 6.90125 20.2319C7.94481 19.1884 9.19992 18.6666 10.6666 18.6666H23.9999V10.6666C23.9999 9.19992 24.5226 7.94392 25.5679 6.89858C26.6115 5.85503 27.8666 5.33325 29.3333 5.33325H34.6666C36.1332 5.33325 37.3893 5.85503 38.4346 6.89858C39.4781 7.94392 39.9999 9.19992 39.9999 10.6666V18.6666ZM29.3333 23.9999H34.6666V10.6666H29.3333V23.9999ZM23.9999 39.9999C25.111 39.9999 26.055 39.6106 26.8319 38.8319C27.6106 38.055 27.9999 37.111 27.9999 35.9999C27.9999 34.8888 27.6106 33.9448 26.8319 33.1679C26.055 32.3892 25.111 31.9999 23.9999 31.9999C22.8888 31.9999 21.9448 32.3892 21.1679 33.1679C20.3893 33.9448 19.9999 34.8888 19.9999 35.9999C19.9999 37.111 20.3893 38.055 21.1679 38.8319C21.9448 39.6106 22.8888 39.9999 23.9999 39.9999ZM15.9999 47.9999H31.9999V46.7999C31.9999 46.0444 31.7884 45.3439 31.3653 44.6986C30.9439 44.055 30.3555 43.5555 29.5999 43.1999C28.711 42.7999 27.8115 42.5004 26.9013 42.3013C25.9893 42.1004 25.0221 41.9999 23.9999 41.9999C22.9777 41.9999 22.0115 42.1004 21.1013 42.3013C20.1893 42.5004 19.2888 42.7999 18.3999 43.1999C17.6444 43.5555 17.0559 44.055 16.6346 44.6986C16.2115 45.3439 15.9999 46.0444 15.9999 46.7999V47.9999Z" fill="#007AFF"/>
</svg>
