<svg width="35" height="41" viewBox="0 0 35 41" fill="none" xmlns="http://www.w3.org/2000/svg">
<g clip-path="url(#clip0_105_603)">
<path d="M32.0834 15.4085V30.387C32.0834 32.2136 30.7709 33.7081 29.1667 33.7081H5.83341C4.22925 33.7081 2.91675 32.2136 2.91675 30.387V10.46C2.91675 8.63332 4.22925 7.13879 5.83341 7.13879H20.5626C20.4751 7.67018 20.4167 8.23478 20.4167 8.79938C20.4167 11.257 21.3647 13.4324 22.8522 14.9601L17.5001 18.7629L5.83341 10.46V13.7811L17.5001 22.0841L25.2292 16.5709C26.0167 16.903 26.8334 17.1023 27.7084 17.1023C29.3563 17.1023 30.8584 16.4547 32.0834 15.4085ZM23.3334 8.79938C23.3334 11.5559 25.2876 13.7811 27.7084 13.7811C30.1292 13.7811 32.0834 11.5559 32.0834 8.79938C32.0834 6.04281 30.1292 3.81763 27.7084 3.81763C25.2876 3.81763 23.3334 6.04281 23.3334 8.79938Z" fill="#007AFF"/>
</g>
<defs>
<clipPath id="clip0_105_603">
<rect width="35" height="39.854" fill="white" transform="translate(0 0.49646)"/>
</clipPath>
</defs>
</svg>
