<svg width="64" height="64" viewBox="0 0 64 64" fill="none" xmlns="http://www.w3.org/2000/svg">
<g clip-path="url(#clip0_331_147)">
<path d="M40 32C45.8934 32 50.6667 27.2267 50.6667 21.3333C50.6667 15.44 45.8934 10.6667 40 10.6667C34.1067 10.6667 29.3334 15.44 29.3334 21.3333C29.3334 27.2267 34.1067 32 40 32ZM16 26.6667V18.6667H10.6667V26.6667H2.66669V32H10.6667V40H16V32H24V26.6667H16ZM40 37.3333C32.88 37.3333 18.6667 40.9067 18.6667 48V53.3333H61.3334V48C61.3334 40.9067 47.12 37.3333 40 37.3333Z" fill="#007AFF"/>
</g>
<defs>
<clipPath id="clip0_331_147">
<rect width="64" height="64" fill="white"/>
</clipPath>
</defs>
</svg>
