<svg width="35" height="35" viewBox="0 0 35 35" fill="none" xmlns="http://www.w3.org/2000/svg">
<g clip-path="url(#clip0_201_92)">
<path fill-rule="evenodd" clip-rule="evenodd" d="M29.1666 4.375H5.83329C4.22913 4.375 2.91663 5.6875 2.91663 7.29167V27.7083C2.91663 29.3125 4.22913 30.625 5.83329 30.625H29.1666C30.7708 30.625 32.0833 29.3125 32.0833 27.7083V7.29167C32.0833 5.6875 30.7708 4.375 29.1666 4.375ZM14.5833 24.7917H7.29163V21.875H14.5833V24.7917ZM14.5833 18.9583H7.29163V16.0417H14.5833V18.9583ZM14.5833 13.125H7.29163V10.2083H14.5833V13.125ZM21.6125 21.875L17.5 17.7333L19.5562 15.6771L21.6125 17.7479L26.2354 13.125L28.3062 15.1958L21.6125 21.875Z" fill="#007AFF"/>
</g>
<defs>
<clipPath id="clip0_201_92">
<rect width="35" height="35" fill="white"/>
</clipPath>
</defs>
</svg>
