<svg width="64" height="64" viewBox="0 0 64 64" fill="none" xmlns="http://www.w3.org/2000/svg">
<g clip-path="url(#clip0_110_466)">
<path d="M53.3332 5.3335H21.3333C18.3999 5.3335 15.9999 7.7335 15.9999 10.6668V42.6668C15.9999 45.6002 18.3999 48.0002 21.3333 48.0002H53.3332C56.2666 48.0002 58.6666 45.6002 58.6666 42.6668V10.6668C58.6666 7.7335 56.2666 5.3335 53.3332 5.3335ZM30.6666 25.3335C30.6666 27.5468 28.8799 29.3335 26.6666 29.3335H23.9999V34.6668H19.9999V18.6668H26.6666C28.8799 18.6668 30.6666 20.4535 30.6666 22.6668V25.3335ZM43.9999 30.6668C43.9999 32.8802 42.2132 34.6668 39.9999 34.6668H33.3333V18.6668H39.9999C42.2132 18.6668 43.9999 20.4535 43.9999 22.6668V30.6668ZM54.6666 22.6668H50.6666V25.3335H54.6666V29.3335H50.6666V34.6668H46.6666V18.6668H54.6666V22.6668ZM23.9999 25.3335H26.6666V22.6668H23.9999V25.3335ZM10.6666 16.0002H5.33325V53.3335C5.33325 56.2668 7.73325 58.6668 10.6666 58.6668H47.9999V53.3335H10.6666V16.0002ZM37.3333 30.6668H39.9999V22.6668H37.3333V30.6668Z" fill="#007AFF"/>
</g>
<defs>
<clipPath id="clip0_110_466">
<rect width="64" height="64" fill="white"/>
</clipPath>
</defs>
</svg>
