<svg width="64" height="64" viewBox="0 0 64 64" fill="none" xmlns="http://www.w3.org/2000/svg">
<g clip-path="url(#clip0_105_599)">
<path d="M31.9999 50.6666C31.9999 40.3466 40.3466 32 50.6666 32C53.5466 32 56.2399 32.6666 58.6666 33.8133V16C58.6666 13.0666 56.2666 10.6666 53.3333 10.6666H10.6666C7.73325 10.6666 5.33325 13.0666 5.33325 16V48C5.33325 50.9333 7.73325 53.3333 10.6666 53.3333H32.2133C32.0799 52.4533 31.9999 51.5733 31.9999 50.6666ZM10.6666 16L31.9999 29.3333L53.3333 16V21.3333L31.9999 34.6666L10.6666 21.3333V16ZM46.2399 58.6666L36.7999 49.2266L40.5599 45.4666L46.2133 51.12L57.5199 39.8133L61.3333 43.5733L46.2399 58.6666Z" fill="#007AFF"/>
</g>
<defs>
<clipPath id="clip0_105_599">
<rect width="64" height="64" fill="white"/>
</clipPath>
</defs>
</svg>
