<svg width="35" height="35" viewBox="0 0 35 35" fill="none" xmlns="http://www.w3.org/2000/svg">
<g clip-path="url(#clip0_98_235)">
<path d="M25.9729 6.51874C25.8562 6.51874 25.7396 6.48957 25.6375 6.43124C22.8375 4.98749 20.4166 4.37499 17.5146 4.37499C14.6271 4.37499 11.8854 5.06041 9.39163 6.43124C9.04164 6.62082 8.60414 6.48957 8.39997 6.13957C8.21039 5.78957 8.34163 5.33749 8.69163 5.14791C11.4041 3.67499 14.3791 2.91666 17.5146 2.91666C20.6208 2.91666 23.3333 3.60207 26.3083 5.13332C26.6729 5.32291 26.8041 5.76041 26.6146 6.11041C26.4833 6.37291 26.2354 6.51874 25.9729 6.51874ZM5.10413 14.175C4.9583 14.175 4.81247 14.1312 4.68122 14.0437C4.3458 13.8104 4.27288 13.3583 4.50622 13.0229C5.94997 10.9812 7.78747 9.37707 9.97497 8.25416C14.5541 5.89166 20.4166 5.87707 25.0104 8.23957C27.1979 9.36249 29.0354 10.9521 30.4791 12.9792C30.7125 13.3 30.6396 13.7667 30.3041 14C29.9687 14.2333 29.5166 14.1604 29.2833 13.825C27.9708 11.9875 26.3083 10.5437 24.3396 9.53749C20.1541 7.39374 14.8021 7.39374 10.6312 9.55207C8.64788 10.5729 6.98538 12.0312 5.67288 13.8687C5.55622 14.0729 5.33747 14.175 5.10413 14.175ZM14.2187 31.7771C14.0291 31.7771 13.8396 31.7042 13.7083 31.5583C12.4396 30.2896 11.7541 29.4729 10.7771 27.7083C9.7708 25.9146 9.2458 23.7271 9.2458 21.3792C9.2458 17.0479 12.95 13.5187 17.5 13.5187C22.05 13.5187 25.7541 17.0479 25.7541 21.3792C25.7541 21.7875 25.4333 22.1083 25.025 22.1083C24.6166 22.1083 24.2958 21.7875 24.2958 21.3792C24.2958 17.85 21.2479 14.9771 17.5 14.9771C13.7521 14.9771 10.7041 17.85 10.7041 21.3792C10.7041 23.4792 11.1708 25.4187 12.0604 26.9937C12.9937 28.6708 13.6354 29.3854 14.7583 30.5229C15.0354 30.8146 15.0354 31.2667 14.7583 31.5583C14.5979 31.7042 14.4083 31.7771 14.2187 31.7771ZM24.675 29.0792C22.9396 29.0792 21.4083 28.6417 20.1541 27.7812C17.9812 26.3083 16.6833 23.9167 16.6833 21.3792C16.6833 20.9708 17.0041 20.65 17.4125 20.65C17.8208 20.65 18.1416 20.9708 18.1416 21.3792C18.1416 23.4354 19.1916 25.375 20.9708 26.5708C22.0062 27.2708 23.2166 27.6062 24.675 27.6062C25.025 27.6062 25.6083 27.5625 26.1916 27.4604C26.5854 27.3875 26.9646 27.65 27.0375 28.0583C27.1104 28.4521 26.8479 28.8312 26.4396 28.9042C25.6083 29.0646 24.8791 29.0792 24.675 29.0792ZM21.7437 32.0833C21.6854 32.0833 21.6125 32.0687 21.5541 32.0542C19.2354 31.4125 17.7187 30.5521 16.1291 28.9917C14.0875 26.9646 12.9646 24.2667 12.9646 21.3792C12.9646 19.0167 14.9771 17.0917 17.4562 17.0917C19.9354 17.0917 21.9479 19.0167 21.9479 21.3792C21.9479 22.9396 23.3041 24.2083 24.9812 24.2083C26.6583 24.2083 28.0146 22.9396 28.0146 21.3792C28.0146 15.8812 23.275 11.4187 17.4416 11.4187C13.3 11.4187 9.5083 13.7229 7.80205 17.2958C7.2333 18.4771 6.94163 19.8625 6.94163 21.3792C6.94163 22.5167 7.04372 24.3104 7.91872 26.6437C8.06455 27.0229 7.87497 27.4458 7.4958 27.5771C7.11663 27.7229 6.69372 27.5187 6.56247 27.1542C5.84788 25.2437 5.49788 23.3479 5.49788 21.3792C5.49788 19.6292 5.8333 18.0396 6.48955 16.6542C8.42913 12.5854 12.7312 9.94582 17.4416 9.94582C24.0771 9.94582 29.4729 15.0646 29.4729 21.3646C29.4729 23.7271 27.4604 25.6521 24.9812 25.6521C22.5021 25.6521 20.4896 23.7271 20.4896 21.3646C20.4896 19.8042 19.1333 18.5354 17.4562 18.5354C15.7791 18.5354 14.4229 19.8042 14.4229 21.3646C14.4229 23.8583 15.3854 26.1917 17.15 27.9417C18.5354 29.3125 19.8625 30.0708 21.9187 30.6396C22.3125 30.7417 22.5312 31.15 22.4291 31.5292C22.3562 31.8646 22.05 32.0833 21.7437 32.0833Z" fill="#007AFF"/>
</g>
<defs>
<clipPath id="clip0_98_235">
<rect width="35" height="35" fill="white"/>
</clipPath>
</defs>
</svg>
