<svg width="35" height="35" viewBox="0 0 35 35" fill="none" xmlns="http://www.w3.org/2000/svg">
<path d="M16.1875 21.8753H18.8125C19.0313 21.8753 19.2197 21.7842 19.3776 21.6019C19.5356 21.4196 19.5903 21.2191 19.5417 21.0003L18.849 17.1722C19.3351 16.9291 19.7179 16.5767 19.9974 16.1149C20.277 15.6531 20.4167 15.1427 20.4167 14.5837C20.4167 13.7816 20.1311 13.0949 19.5599 12.5238C18.9888 11.9526 18.3021 11.667 17.5 11.667C16.698 11.667 16.0113 11.9526 15.4401 12.5238C14.869 13.0949 14.5834 13.7816 14.5834 14.5837C14.5834 15.1427 14.7231 15.6531 15.0026 16.1149C15.2822 16.5767 15.665 16.9291 16.1511 17.1722L15.4584 21.0003C15.4098 21.2191 15.4645 21.4196 15.6224 21.6019C15.7804 21.7842 15.9688 21.8753 16.1875 21.8753ZM17.5 31.9378C17.3299 31.9378 17.1719 31.9257 17.0261 31.9014C16.8802 31.8771 16.7344 31.8406 16.5886 31.792C13.3073 30.6982 10.6945 28.6748 8.75004 25.7217C6.8056 22.7686 5.83337 19.5906 5.83337 16.1878V9.2972C5.83337 8.68956 6.00959 8.14269 6.36202 7.65658C6.71445 7.17046 7.17018 6.81803 7.72921 6.59928L16.4792 3.31803C16.8195 3.19651 17.1598 3.13574 17.5 3.13574C17.8403 3.13574 18.1806 3.19651 18.5209 3.31803L27.2709 6.59928C27.8299 6.81803 28.2856 7.17046 28.6381 7.65658C28.9905 8.14269 29.1667 8.68956 29.1667 9.2972V16.1878C29.1667 19.5906 28.1945 22.7686 26.25 25.7217C24.3056 28.6748 21.6927 30.6982 18.4115 31.792C18.2657 31.8406 18.1198 31.8771 17.974 31.9014C17.8282 31.9257 17.6702 31.9378 17.5 31.9378Z" fill="#007AFF"/>
</svg>
