<svg width="35" height="35" viewBox="0 0 35 35" fill="none" xmlns="http://www.w3.org/2000/svg">
<g clip-path="url(#clip0_98_220)">
<path d="M26.25 23.45C25.1417 23.45 24.15 23.8875 23.3917 24.5729L12.9937 18.5209C13.0667 18.1854 13.125 17.85 13.125 17.5C13.125 17.15 13.0667 16.8146 12.9937 16.4792L23.275 10.4854C24.0625 11.2146 25.0979 11.6667 26.25 11.6667C28.6708 11.6667 30.625 9.71252 30.625 7.29169C30.625 4.87085 28.6708 2.91669 26.25 2.91669C23.8292 2.91669 21.875 4.87085 21.875 7.29169C21.875 7.64169 21.9333 7.9771 22.0063 8.31252L11.725 14.3063C10.9375 13.5771 9.90208 13.125 8.75 13.125C6.32917 13.125 4.375 15.0792 4.375 17.5C4.375 19.9209 6.32917 21.875 8.75 21.875C9.90208 21.875 10.9375 21.4229 11.725 20.6938L22.1083 26.7604C22.0354 27.0667 21.9917 27.3875 21.9917 27.7084C21.9917 30.0563 23.9021 31.9667 26.25 31.9667C28.5979 31.9667 30.5083 30.0563 30.5083 27.7084C30.5083 25.3604 28.5979 23.45 26.25 23.45Z" fill="#007AFF"/>
</g>
<defs>
<clipPath id="clip0_98_220">
<rect width="35" height="35" fill="white"/>
</clipPath>
</defs>
</svg>
